<?xml version="1.0" encoding="UTF-8" standalone="no"?>
<!-- Generator: Adobe Illustrator 18.0.0, SVG Export Plug-In . SVG Version: 6.00 Build 0)  -->

<svg
   xmlns:dc="http://purl.org/dc/elements/1.1/"
   xmlns:cc="http://creativecommons.org/ns#"
   xmlns:rdf="http://www.w3.org/1999/02/22-rdf-syntax-ns#"
   xmlns:svg="http://www.w3.org/2000/svg"
   xmlns="http://www.w3.org/2000/svg"
   xmlns:sodipodi="http://sodipodi.sourceforge.net/DTD/sodipodi-0.dtd"
   xmlns:inkscape="http://www.inkscape.org/namespaces/inkscape"
   version="1.1"
   id="Layer_1"
   x="0px"
   y="0px"
   viewBox="0 0 365 560"
   enable-background="new 0 0 365 560"
   xml:space="preserve"
   inkscape:version="0.91 r13725"
   sodipodi:docname="Map_marker.svg"
   inkscape:export-filename="/cs/home/mrp4/Race2/new/src/assets/map-pin/Map_marker-64.png"
   inkscape:export-xdpi="10.356164"
   inkscape:export-ydpi="10.356164"><metadata
     id="metadata3424"><rdf:RDF><cc:Work
         rdf:about=""><dc:format>image/svg+xml</dc:format><dc:type
           rdf:resource="http://purl.org/dc/dcmitype/StillImage" /></cc:Work></rdf:RDF></metadata><defs
     id="defs3422" /><sodipodi:namedview
     pagecolor="#ffffff"
     bordercolor="#666666"
     borderopacity="1"
     objecttolerance="10"
     gridtolerance="10"
     guidetolerance="10"
     inkscape:pageopacity="0"
     inkscape:pageshadow="2"
     inkscape:window-width="1920"
     inkscape:window-height="1016"
     id="namedview3420"
     showgrid="false"
     inkscape:zoom="0.5"
     inkscape:cx="462.23959"
     inkscape:cy="90.541598"
     inkscape:window-x="0"
     inkscape:window-y="27"
     inkscape:window-maximized="1"
     inkscape:current-layer="g3416" /><g
     id="g3416"
     style="fill:#ffcc00"><path
       d="M 182.94687,553.17333 C 183.1,552.98114 183.1,552.98114 183.1,552.98114 c 0,0 175.2,-269 175.2,-357.4 C 358.3,65.48116 269.5,8.8811584 182.9,8.6811584 96.3,8.8811584 7.5,65.48116 7.5,195.58114 c 0,88.4 175.3,357.4 175.3,357.4 z M 122.2,188.18114 c 0,-33.6 27.2,-60.8 60.8,-60.8 33.6,0 60.8,27.2 60.8,60.8 0,33.6 -27.3,60.8 -60.9,60.8 -33.5,0 -60.7,-27.2 -60.7,-60.8 z"
       id="path3418"
       style="opacity:1;fill:#ffcc00;stroke:#000000;stroke-width:8.39999962;stroke-miterlimit:4;stroke-dasharray:none;stroke-opacity:1"
       inkscape:connector-curvature="0"
       sodipodi:nodetypes="ccscsccsssss" /></g></svg>