<?xml version="1.0" standalone="no"?>
<!DOCTYPE svg PUBLIC "-//W3C//DTD SVG 20010904//EN"
 "http://www.w3.org/TR/2001/REC-SVG-20010904/DTD/svg10.dtd">
<svg version="1.0" xmlns="http://www.w3.org/2000/svg"
 width="720.000000pt" height="720.000000pt" viewBox="0 0 720.000000 720.000000"
 preserveAspectRatio="xMidYMid meet">
<metadata>
Created by potrace 1.11, written by Peter Selinger 2001-2013
</metadata>
<g transform="translate(0.000000,720.000000) scale(0.100000,-0.100000)"
fill="#000000" stroke="none">
<path d="M3480 6751 c0 -5 -18 -16 -40 -25 -99 -39 -197 -131 -247 -231 -13
-27 -42 -79 -63 -115 -22 -36 -44 -76 -50 -90 -6 -13 -18 -31 -26 -40 -8 -8
-25 -35 -37 -60 -43 -83 -181 -325 -194 -338 -7 -7 -13 -18 -13 -23 0 -5 -21
-44 -46 -87 -25 -42 -51 -86 -57 -97 -6 -11 -28 -47 -49 -81 -21 -33 -38 -65
-38 -71 0 -7 -15 -31 -33 -55 -18 -24 -50 -77 -71 -118 -41 -83 -51 -101 -81
-145 -12 -16 -36 -60 -54 -97 -19 -38 -38 -68 -42 -68 -4 0 -11 -10 -14 -21
-10 -29 -76 -143 -87 -147 -4 -2 -8 -8 -8 -14 0 -6 -28 -58 -62 -117 -34 -58
-74 -128 -90 -156 -39 -67 -51 -87 -64 -101 -6 -7 -17 -27 -24 -46 -8 -18 -21
-44 -31 -58 -9 -14 -33 -55 -52 -91 -20 -37 -50 -88 -66 -115 -17 -27 -40 -67
-52 -88 -12 -22 -28 -46 -35 -54 -8 -7 -14 -18 -14 -24 0 -6 -17 -38 -37 -72
-42 -68 -87 -148 -106 -186 -6 -14 -15 -28 -20 -31 -7 -5 -33 -51 -92 -164
-15 -27 -42 -73 -61 -101 -18 -29 -38 -63 -44 -75 -13 -30 -53 -98 -99 -169
-19 -30 -57 -98 -84 -150 -27 -52 -64 -118 -83 -147 -19 -28 -34 -56 -34 -61
0 -5 -13 -27 -28 -48 -15 -21 -43 -68 -61 -103 -18 -36 -40 -71 -47 -79 -8 -7
-14 -18 -14 -24 0 -5 -16 -33 -35 -62 -19 -29 -35 -58 -35 -65 0 -6 -4 -11 -9
-11 -5 0 -15 -15 -21 -34 -6 -19 -20 -46 -31 -60 -12 -15 -34 -52 -51 -84 -17
-31 -133 -232 -258 -447 -125 -214 -264 -455 -309 -535 -45 -80 -86 -152 -92
-160 -40 -63 -49 -97 -49 -202 0 -59 4 -117 9 -130 45 -114 58 -137 95 -171
22 -21 68 -54 101 -75 l60 -37 3258 -3 c3231 -2 3258 -2 3314 18 106 37 182
105 238 211 32 62 35 74 35 153 0 58 -5 97 -15 116 -8 16 -16 37 -18 47 -5 25
-51 118 -87 176 -17 27 -52 90 -79 141 -27 52 -61 112 -76 135 -14 23 -31 54
-37 69 -7 15 -21 40 -33 57 -11 16 -33 55 -50 86 -16 31 -48 88 -70 125 -22
38 -47 83 -57 99 -9 17 -27 50 -39 75 -12 25 -25 47 -29 50 -5 3 -32 52 -61
110 -29 58 -60 114 -69 125 -15 17 -75 123 -185 320 -15 28 -70 123 -121 212
-52 89 -94 167 -94 175 0 12 -108 200 -130 225 -6 7 -14 21 -18 30 -12 30 -85
158 -94 163 -4 3 -15 24 -24 45 -9 22 -36 70 -60 106 -24 36 -66 111 -94 165
-28 54 -55 104 -60 111 -6 7 -10 15 -10 19 0 4 -6 15 -14 23 -7 9 -26 41 -42
71 -16 30 -43 78 -61 107 -18 29 -33 56 -33 61 0 5 -9 19 -20 32 -11 13 -20
28 -20 35 0 7 -14 31 -30 54 -17 22 -45 69 -62 104 -18 34 -35 64 -39 67 -6 5
-153 267 -177 315 -8 17 -20 37 -27 45 -7 8 -31 51 -55 95 -23 44 -53 94 -66
112 -13 17 -24 36 -24 40 0 5 -17 36 -39 69 -21 32 -52 84 -69 114 -74 131
-133 234 -203 351 -31 52 -59 104 -63 115 -4 12 -17 33 -29 47 -12 15 -33 48
-47 74 -14 26 -30 55 -37 64 -13 15 -20 28 -107 185 -27 49 -53 91 -56 94 -3
3 -21 31 -39 62 -18 32 -37 60 -42 63 -5 4 -21 30 -36 58 -14 29 -29 54 -32
57 -4 3 -22 30 -41 60 -85 136 -199 254 -287 295 -18 9 -33 20 -33 25 0 6 -49
10 -115 10 -63 0 -115 -4 -115 -9z m253 -64 c68 -31 152 -108 210 -192 161
-230 733 -1202 1447 -2455 481 -844 796 -1400 1190 -2100 51 -91 121 -214 155
-275 314 -555 337 -598 357 -678 50 -196 -13 -341 -180 -420 l-67 -32 -3260 0
-3260 0 -56 26 c-68 32 -120 82 -157 152 -25 49 -27 59 -27 183 l0 131 149
259 c82 142 217 376 299 519 83 143 173 301 202 350 28 50 105 182 170 295 65
113 175 304 245 425 70 121 137 236 147 255 11 19 89 154 173 300 84 146 205
355 268 465 63 110 197 342 297 515 403 697 607 1051 920 1595 229 399 338
580 364 602 121 108 285 139 414 80z"/>
<path d="M3545 6598 c-35 -13 -103 -58 -127 -84 -19 -22 -13 -12 -630 -1084
-261 -454 -518 -899 -570 -990 -115 -199 -240 -416 -418 -725 -73 -126 -219
-381 -325 -565 -106 -184 -258 -447 -337 -585 -79 -137 -206 -358 -283 -490
-76 -132 -223 -388 -328 -570 -341 -590 -348 -604 -360 -667 -20 -107 26 -195
122 -235 71 -30 5788 -42 6424 -14 200 9 247 21 297 75 22 24 25 37 25 100 0
69 -2 76 -56 171 -62 110 -84 148 -714 1240 -241 418 -607 1053 -813 1410
-206 358 -449 781 -542 940 -163 282 -303 525 -653 1135 -93 162 -239 417
-325 565 -85 149 -168 287 -184 307 -51 65 -132 91 -203 66z m360 -1205 c165
-290 319 -559 341 -597 23 -39 232 -404 464 -811 233 -407 646 -1129 918
-1605 579 -1012 685 -1197 701 -1227 l12 -23 -573 1 c-544 1 -684 4 -446 11
59 2 110 6 113 10 9 9 15 106 8 136 -5 21 -9 22 -124 22 l-119 0 0 50 0 49
128 3 127 3 0 80 0 80 -225 0 -225 0 -3 -223 -2 -222 -45 0 -45 0 -2 222 -3
223 -89 3 c-65 2 -92 -1 -98 -10 -4 -7 -8 -109 -8 -225 l0 -213 -100 0 -100 0
0 219 c0 190 -2 220 -16 225 -9 3 -51 6 -95 6 -73 0 -79 -2 -84 -22 -3 -13 -5
-114 -3 -226 l3 -203 -40 3 -40 3 3 56 c6 98 4 100 -156 97 l-137 -3 0 -78 0
-77 -66 0 c-76 0 -79 3 -79 95 0 99 66 175 165 190 37 5 104 -2 186 -21 25 -6
27 -3 43 60 23 93 23 93 -36 110 -118 33 -277 22 -368 -24 -87 -45 -156 -128
-180 -219 -6 -24 -12 -77 -12 -118 l0 -74 -36 3 -37 3 -65 210 c-36 116 -69
216 -73 223 -10 15 -223 17 -232 2 -5 -8 -57 -174 -114 -367 l-22 -73 -79 0
c-60 0 -80 3 -80 13 0 8 -9 22 -20 32 -20 19 -20 19 16 56 85 87 73 240 -24
303 -20 14 -58 30 -84 36 -63 16 -332 10 -350 -8 -10 -10 -13 -64 -13 -220 l0
-207 -95 -3 -95 -2 31 19 c85 52 123 167 93 276 -16 58 -81 119 -149 139 -59
18 -262 22 -330 8 l-35 -8 -3 -217 -2 -217 -466 0 -465 0 12 23 c6 12 139 245
294 517 155 272 392 689 527 925 135 237 364 639 510 895 737 1293 1094 1920
1232 2162 83 147 153 267 156 267 3 0 140 -237 305 -526z m-1802 -3985 c30
-15 39 -54 22 -94 -16 -38 -51 -57 -99 -52 l-31 3 2 75 c1 41 2 79 3 83 0 10
77 -1 103 -15z m600 -9 c42 -52 8 -109 -71 -117 l-52 -5 0 78 0 78 53 -6 c36
-5 57 -13 70 -28z m602 -177 l7 -32 -47 0 c-39 0 -46 3 -41 16 3 8 14 45 23
80 l17 65 17 -49 c9 -27 20 -63 24 -80z"/>
<path d="M3342 4704 c-173 -46 -344 -145 -472 -274 -169 -168 -251 -338 -300
-615 -32 -181 31 -447 151 -645 66 -108 235 -277 335 -336 76 -45 223 -106
312 -130 31 -8 111 -17 177 -21 190 -9 340 24 516 112 109 54 154 87 252 182
97 94 155 175 212 294 144 306 133 639 -31 938 -126 230 -359 412 -618 486
-81 23 -104 25 -285 24 -137 0 -212 -5 -249 -15z m472 -39 c405 -84 727 -455
762 -876 l7 -79 -227 0 c-124 0 -226 3 -226 6 0 3 11 20 25 38 45 59 53 92 53
236 0 87 -4 146 -12 165 -40 95 -192 166 -307 145 -37 -7 -57 -5 -98 10 -53
21 -62 18 -35 -11 9 -10 14 -25 12 -34 -2 -12 -14 -7 -55 24 -86 64 -135 65
-223 5 -27 -19 -54 -34 -60 -34 -16 0 -12 15 10 35 11 10 20 22 20 26 0 9 -70
-9 -86 -22 -6 -5 -34 -5 -68 2 -31 5 -61 7 -66 4 -8 -5 -198 114 -243 153 -16
14 -14 18 30 50 60 43 180 103 258 130 52 18 84 25 205 46 49 9 246 -3 324
-19z m-517 -409 c3 -3 -11 -24 -31 -47 -20 -24 -41 -58 -48 -76 -7 -18 -16
-33 -20 -33 -14 0 -8 85 8 108 25 36 -7 28 -50 -14 -51 -50 -69 -95 -70 -186
0 -43 -4 -78 -7 -78 -15 0 -43 88 -43 134 0 96 56 166 152 192 44 12 97 12
109 0z m752 -19 c101 -50 139 -159 90 -263 l-23 -49 -6 85 c-8 96 -31 152 -80
194 -28 23 -50 33 -50 22 0 -2 7 -17 15 -32 17 -33 20 -80 6 -89 -5 -3 -12 4
-16 15 -3 10 -26 46 -50 79 -29 39 -40 62 -32 65 22 10 102 -5 146 -27z m-167
-120 c101 -59 111 -102 106 -440 -3 -238 -5 -254 -26 -294 -25 -47 -75 -85
-137 -103 -26 -8 -111 -10 -250 -8 -193 3 -213 5 -250 25 -48 26 -90 68 -104
106 -17 45 -15 579 3 620 17 43 87 103 134 116 21 5 132 9 257 8 l220 -2 47
-28z"/>
<path d="M3391 3909 c-29 -31 -27 -39 12 -39 21 0 40 9 56 25 15 16 18 25 10
25 -8 0 -24 3 -35 6 -15 4 -28 -2 -43 -17z"/>
<path d="M3746 3923 l-28 -5 23 -24 c22 -23 89 -35 89 -16 0 9 -44 53 -51 51
-2 -1 -17 -4 -33 -6z"/>
<path d="M3463 3654 c-4 -10 13 -35 52 -74 51 -51 58 -64 61 -104 l4 -46 -34
0 c-19 0 -41 -2 -48 -5 -8 -3 -35 11 -61 31 -43 33 -77 40 -77 15 0 -5 23 -28
51 -50 l52 -41 142 0 142 0 47 41 c25 22 46 47 46 55 0 21 -34 17 -56 -7 -30
-33 -65 -45 -114 -39 l-46 5 1 42 c0 38 7 49 59 102 84 85 79 91 -84 91 -110
0 -132 -3 -137 -16z"/>
<path d="M2118 2663 l-48 -4 0 -380 0 -379 75 0 75 0 0 145 0 146 68 -3 67 -3
50 -142 50 -143 82 0 82 0 -25 68 c-14 37 -39 105 -56 152 -17 47 -36 91 -42
99 -8 10 -5 17 9 27 77 54 99 102 93 208 -4 96 -34 143 -114 182 -52 25 -67
28 -188 30 -72 1 -152 0 -178 -3z m296 -148 c48 -45 45 -140 -6 -178 -21 -16
-43 -20 -105 -21 l-78 -1 -3 112 -3 112 58 3 c82 4 109 -1 137 -27z"/>
<path d="M4795 2634 c-48 -18 -100 -65 -126 -116 -29 -57 -26 -65 36 -79 30
-7 56 -10 58 -8 1 2 9 18 17 34 9 17 31 38 50 48 68 35 181 2 196 -59 12 -48
-13 -80 -109 -137 -51 -31 -114 -77 -140 -104 -61 -60 -114 -168 -125 -250
l-9 -63 254 0 253 0 0 60 0 60 -180 0 -180 0 20 39 c27 54 76 100 150 142 131
73 173 119 187 203 15 91 -55 196 -152 229 -59 21 -146 21 -200 1z"/>
<path d="M2822 2514 c-29 -7 -66 -21 -83 -29 -32 -17 -32 -22 -4 -92 l13 -31
64 25 c45 19 82 26 131 27 79 1 97 -13 97 -74 l0 -37 -72 -6 c-132 -10 -226
-57 -265 -130 -39 -75 -11 -210 52 -251 62 -41 178 -36 253 11 l45 28 33 -32
c17 -18 38 -33 46 -33 7 1 33 18 58 40 l44 39 -19 22 c-18 19 -21 41 -25 218
-6 229 -15 258 -90 298 -36 19 -58 23 -134 22 -50 0 -115 -7 -144 -15z m216
-391 l-3 -87 -40 -23 c-85 -48 -165 -16 -165 65 0 78 68 126 183 131 l28 1 -3
-87z"/>
<path d="M3478 2515 c-122 -45 -185 -164 -176 -334 8 -146 73 -248 180 -280
88 -27 219 -10 290 37 l27 18 -24 52 -24 52 -47 -25 c-52 -28 -131 -33 -174
-12 -14 6 -36 35 -50 62 -20 40 -25 65 -24 125 0 142 42 200 142 200 45 0 66
-6 95 -25 20 -14 41 -24 45 -21 4 2 18 25 32 51 l25 47 -24 17 c-73 49 -210
66 -293 36z"/>
<path d="M4025 2507 c-107 -51 -159 -148 -159 -297 0 -206 105 -321 292 -321
42 0 91 5 108 10 56 16 104 43 104 58 0 14 -37 93 -44 93 -2 0 -23 -9 -47 -19
-138 -61 -259 -12 -259 104 l0 25 195 0 195 0 0 63 c0 124 -44 223 -121 274
-35 23 -54 27 -127 30 -76 4 -94 1 -137 -20z m194 -113 c28 -23 51 -75 51
-116 0 -16 -13 -18 -125 -18 l-125 0 0 34 c0 39 35 95 70 113 42 21 95 16 129
-13z"/>
</g>
</svg>
